<svg width="179" height="129" viewBox="0 0 179 129" fill="none" xmlns="http://www.w3.org/2000/svg">
<path d="M137.745 8.5038C145.574 10.5712 177.486 28.1821 178.008 34.614C178.365 39.0129 148.204 66.7286 127.577 83.809C123.742 86.9847 118.585 92.0148 117.317 92.0148C116.05 92.0148 90.0275 82.241 88.6846 82.1663C87.3416 82.0916 61.6193 92.5454 60.2873 92.0148C58.9554 91.4842 53.6896 86.8801 49.7638 83.6291C29.7078 67.0201 1.15226 40.5064 1.00126 34.614C0.777582 25.8851 30.3037 11.6431 38.1325 8.5038C45.9614 5.36446 71.0137 1 88.6846 1C106.355 1 129.917 6.43643 137.745 8.5038Z" fill="white" stroke="black" stroke-width="1.2" stroke-linejoin="round"/>
<path d="M91.3817 127.51C94.5961 127.808 101.623 124.523 102.968 121.387C103.492 119.67 94.3433 96.941 93.3718 95.6716C92.4003 94.4023 88.6159 91.1915 88.6159 91.1915L91.1647 123.883C91.2062 124.427 91.307 127.435 91.3817 127.51Z" fill="white"/>
<path d="M88.6159 91.1915C88.6159 91.1915 83.8318 94.4769 82.9348 95.8956C82.0378 97.3143 74.1139 120.118 74.3382 121.387C75.4595 123.851 83.0095 128.256 83.9065 127.51L84.1554 123.883C85.8973 110.82 88.6159 91.1915 88.6159 91.1915Z" fill="white"/>
<path d="M88.6159 91.1915C88.6159 91.1915 83.8318 94.4769 82.9348 95.8956C82.0378 97.3143 74.1139 120.118 74.3382 121.387C75.4595 123.851 83.0095 128.256 83.9065 127.51L84.1554 123.883M88.6159 91.1915C88.6159 91.1915 92.4003 94.4023 93.3718 95.6716C94.3433 96.941 103.492 119.67 102.968 121.387C101.623 124.523 94.5961 127.808 91.3817 127.51C91.307 127.435 91.2062 124.427 91.1647 123.883M88.6159 91.1915C88.6159 91.1915 85.8973 110.82 84.1554 123.883M88.6159 91.1915C88.6159 91.1915 90.1693 110.82 91.1647 123.883M88.6159 91.1915L84.1554 123.883M88.6159 91.1915L91.1647 123.883M84.1554 123.883C84.8782 125.078 90.6342 125.078 91.1647 123.883" stroke="black" stroke-width="1.2" stroke-linejoin="round"/>
<path d="M44.5503 105.435C50.0551 99.1254 75.3156 90.6879 87.2578 87.2578C87.2578 87.2578 53.1516 118.279 52.1045 116.702C51.0574 115.124 56.9661 107.463 56.2182 106.111C55.4702 104.759 45.2085 107.418 44.5503 105.435Z" stroke="black" stroke-width="1.2" stroke-linejoin="round"/>
<path d="M132.494 105.435C126.989 99.1254 101.729 90.6879 89.7867 87.2578C89.7867 87.2578 123.893 118.279 124.94 116.702C125.987 115.124 120.078 107.463 120.826 106.111C121.574 104.759 131.836 107.418 132.494 105.435Z" stroke="#1C1C1C" stroke-width="1.2" stroke-linejoin="round"/>
</svg>
